<svg id="gooroome" data-name="gooroome" xmlns="http://www.w3.org/2000/svg" viewBox="0 0 139.5 85"><defs><style>.cls-1{fill:#fff;}.cls-2{fill:#333;}</style></defs><title>구루미 로고</title><path class="cls-1" d="M139.5,43.2a19.8,19.8,0,0,0-16.7-19.5,26.7,26.7,0,0,0-24-14.9,27.6,27.6,0,0,0-5.1.5,33.2,33.2,0,0,0-46.4.3,27.5,27.5,0,0,0-6.5-.8,26.8,26.8,0,0,0-24,14.8,19.8,19.8,0,0,0,.9,39.3A26.9,26.9,0,0,0,40.8,76.1a27.4,27.4,0,0,0,6.4-.8,33.2,33.2,0,0,0,46.6.3,27.3,27.3,0,0,0,5,.5,26.9,26.9,0,0,0,23.1-13.2A19.8,19.8,0,0,0,139.5,43.2Z"/><path class="cls-2" d="M32.9,42a1.1,1.1,0,0,1,.8-.3H50.2c.1-.7.3-1.4.4-2.2a15.7,15.7,0,0,0,.4-2.3l.3-2.3a12.8,12.8,0,0,0,.1-1.9H36.2a1,1,0,0,1-1-1v-.8a1,1,0,0,1,1-1H53.8a1.1,1.1,0,0,1,.8.3.8.8,0,0,1,.2.7,50.2,50.2,0,0,1-.5,5.8,41.3,41.3,0,0,1-.8,4.7h3.2a1.1,1.1,0,0,1,.8.3,1.4,1.4,0,0,1,.2.7v.8a1.9,1.9,0,0,1-.2.8l-.8.2H46.5V54.9a.8.8,0,0,1-.2.7,1.1,1.1,0,0,1-.8.3H44.3a1.1,1.1,0,0,1-.8-.3.9.9,0,0,1-.3-.7V44.5H33.7l-.8-.2a1.9,1.9,0,0,1-.2-.8v-.8A1.4,1.4,0,0,1,32.9,42Z"/><path class="cls-2" d="M58.5,46.3a1.9,1.9,0,0,1,.2-.8,1.1,1.1,0,0,1,.8-.3h23a1.1,1.1,0,0,1,.8.3,1.9,1.9,0,0,1,.2.8V47a1.4,1.4,0,0,1-.2.7,1.1,1.1,0,0,1-.8.3H72.6v6.9a.8.8,0,0,1-.2.7,1.1,1.1,0,0,1-.8.3H70.4a1.1,1.1,0,0,1-.8-.3.9.9,0,0,1-.3-.7V48H59.5a1.1,1.1,0,0,1-.8-.3,1.4,1.4,0,0,1-.2-.7Zm22.3-4.4a1,1,0,0,1-1,1H62.7a1,1,0,0,1-1-1V36a1.1,1.1,0,0,1,.3-.8.9.9,0,0,1,.7-.3H76.8V32.5H62.7l-.7-.2a1.1,1.1,0,0,1-.3-.8v-.7a1,1,0,0,1,1-1H79a1,1,0,0,1,1,1v5.8a1.1,1.1,0,0,1-.3.8l-.7.2H64.9v2.5H79.8a1,1,0,0,1,1,1Z"/><path class="cls-2" d="M87.2,49.3a1.1,1.1,0,0,1-.8-.3.9.9,0,0,1-.3-.7V31.8a.8.8,0,0,1,.3-.7,1.1,1.1,0,0,1,.8-.3H97.9a1.1,1.1,0,0,1,.8.3.8.8,0,0,1,.3.7V48.3a.9.9,0,0,1-.3.7,1.1,1.1,0,0,1-.8.3Zm8.5-2.8V33.6H89.4V46.5Zm8.9,9.4a1,1,0,0,1-1-1V30.1a1,1,0,0,1,1-1h1.2a1,1,0,0,1,1,1V54.9a1,1,0,0,1-1,1Z"/></svg>